<?xml version="1.0" encoding="UTF-8"?>
<svg version="1.1" xmlns="http://www.w3.org/2000/svg" width="96" height="96">
<path d="M0 0 C1.1125415 -0.0038269 2.22508301 -0.00765381 3.37133789 -0.01159668 C5.70752882 -0.01430079 8.04375081 -0.00704573 10.37988281 0.00976562 C13.92842983 0.03119523 17.47495245 0.00991074 21.0234375 -0.015625 C23.30729608 -0.01298146 25.59115341 -0.00785594 27.875 0 C28.92115479 -0.00809692 29.96730957 -0.01619385 31.04516602 -0.02453613 C39.69516121 0.08401364 48.22671767 1.68538549 54.875 7.59375 C61.61798524 15.18117449 62.54409116 24.85937232 62.46875 34.59375 C62.47449036 36.26256226 62.47449036 36.26256226 62.48034668 37.96508789 C62.48305079 40.30127882 62.47579573 42.63750081 62.45898438 44.97363281 C62.43755477 48.52217983 62.45883926 52.06870245 62.484375 55.6171875 C62.48173146 57.90104608 62.47660594 60.18490341 62.46875 62.46875 C62.47684692 63.51490479 62.48494385 64.56105957 62.49328613 65.63891602 C62.39046344 73.83253774 60.90708719 81.57937107 55.89453125 88.25 C55.18683594 88.8378125 54.47914062 89.425625 53.75 90.03125 C53.05519531 90.6396875 52.36039062 91.248125 51.64453125 91.875 C44.16174708 96.45321138 36.67642591 96.9887576 28.0703125 96.96484375 C26.9549411 96.9700856 25.8395697 96.97532745 24.69039917 96.98072815 C22.34227324 96.98712192 19.99411516 96.98584586 17.64599609 96.97729492 C14.07981527 96.96879129 10.51524155 96.99757594 6.94921875 97.02929688 C4.65625047 97.03090945 2.3632794 97.03033027 0.0703125 97.02734375 C-0.98211639 97.03857773 -2.03454529 97.04981171 -3.11886597 97.06138611 C-11.79696855 96.98087886 -20.32820021 95.39663789 -27 89.46875 C-33.74298524 81.88132551 -34.66909116 72.20312768 -34.59375 62.46875 C-34.5975769 61.3562085 -34.60140381 60.24366699 -34.60534668 59.09741211 C-34.60805079 56.76122118 -34.60079573 54.42499919 -34.58398438 52.08886719 C-34.56255477 48.54032017 -34.58383926 44.99379755 -34.609375 41.4453125 C-34.60673146 39.16145392 -34.60160594 36.87759659 -34.59375 34.59375 C-34.60184692 33.54759521 -34.60994385 32.50144043 -34.61828613 31.42358398 C-34.50973636 22.77358879 -32.90836451 14.24203233 -27 7.59375 C-19.41257551 0.85076476 -9.73437768 -0.07534116 0 0 Z M-19.9375 14.65625 C-24.86711567 21.32573002 -25.51618449 28.64224425 -25.4609375 36.71875 C-25.46380768 37.66129639 -25.46667786 38.60384277 -25.46963501 39.57495117 C-25.47166377 41.55485642 -25.46621772 43.53478227 -25.45361328 45.51464844 C-25.43754274 48.52324789 -25.45350284 51.53050419 -25.47265625 54.5390625 C-25.47067361 56.47396126 -25.4668295 58.40885919 -25.4609375 60.34375 C-25.46701019 61.23151123 -25.47308289 62.11927246 -25.4793396 63.03393555 C-25.39691384 70.45313205 -24.41709822 77.52834439 -19 82.96875 C-10.60674817 89.24031159 1.42182792 87.84171532 11.37792969 87.79199219 C13.93188215 87.78127358 16.48513141 87.79193256 19.0390625 87.8046875 C33.42016252 88.37420016 33.42016252 88.37420016 46.375 83.28125 C53.05543446 76.11200326 53.09235228 67.92912555 53.10546875 58.6328125 C53.10879715 57.79841644 53.11212555 56.96402039 53.11555481 56.1043396 C53.1205926 54.34788561 53.12296411 52.59142215 53.12280273 50.83496094 C53.12498785 48.17106105 53.14317338 45.50757676 53.16210938 42.84375 C53.16504438 41.12760557 53.16702846 39.41145919 53.16796875 37.6953125 C53.17874702 36.51831284 53.17874702 36.51831284 53.18974304 35.3175354 C53.1565011 27.1326182 52.29909109 19.96997625 46.51171875 13.90234375 C40.60238665 8.75550611 31.87865894 9.36470615 24.48046875 9.328125 C23.57806961 9.32242493 22.67567047 9.31672485 21.7459259 9.31085205 C19.84226644 9.3014368 17.93859093 9.29488194 16.03491211 9.29101562 C13.14472608 9.2813162 10.25525368 9.25026226 7.36523438 9.21875 C5.50781668 9.21221809 3.65039395 9.20696835 1.79296875 9.203125 C0.93954391 9.1907782 0.08611908 9.1784314 -0.79316711 9.16571045 C-7.86470577 9.19156537 -14.17143182 10.39437352 -19.9375 14.65625 Z " fill="#ECDADA" transform="translate(34.0625,-0.53125)"/>
<path d="M0 0 C6.85134625 3.90405765 11.37886049 9.32558276 13.625 16.9375 C14.69656149 25.3433046 13.55484486 31.97114493 8.625 38.9375 C4.08048716 44.04333034 -1.25321727 47.41206028 -8.1328125 48.2890625 C-16.43826217 48.69265213 -22.94536632 46.88015493 -29.22265625 41.29296875 C-35.02530855 34.97705973 -37.03023601 28.51776415 -36.78515625 20.00390625 C-35.89715814 13.36506323 -32.91510733 8.01568552 -28 3.5 C-19.55741407 -2.88165489 -9.76914642 -4.46463253 0 0 Z M-24.75 14.5625 C-26.95407893 19.14020239 -27.1721639 22.94302411 -26.375 27.9375 C-24.04531069 32.77608548 -21.21358548 35.60781069 -16.375 37.9375 C-11.38052411 38.7346639 -7.57770239 38.51657893 -3 36.3125 C0.58407713 33.06976355 3.22035241 30.47274104 4.0078125 25.5390625 C4.26383919 19.85527006 3.56126932 16.28811345 -0.375 11.9375 C-4.72561345 8.00123068 -8.29277006 7.29866081 -13.9765625 7.5546875 C-18.91024104 8.34214759 -21.50726355 10.97842287 -24.75 14.5625 Z " fill="#ECD9D9" transform="translate(59.375,25.0625)"/>
<path d="M0 0 C2 3 2 3 1.875 6 C1 9 1 9 -0.75 10.9375 C-3.63758514 12.30108187 -5.01416183 12.02147095 -8 11 C-10 9 -10 9 -10.3125 5.5625 C-10 2 -10 2 -8.9375 0 C-5.77203476 -1.63378851 -3.34979714 -0.85267564 0 0 Z " fill="#EDDBDB" transform="translate(78,17)"/>
</svg>
